<svg xmlns="http://www.w3.org/2000/svg" viewBox="0 0 512 512">
  <!-- Emerald green background with rounded corners -->
  <rect width="512" height="512" rx="64" fill="#059669"/>
  
  <!-- White briefcase icon (centered, scaled appropriately) -->
  <g transform="translate(128, 128)">
    <path fill="#ffffff" d="M96 0C78.3 0 64 14.3 64 32v32H32C14.3 64 0 78.3 0 96V384c0 17.7 14.3 32 32 32H224c17.7 0 32-14.3 32-32V96c0-17.7-14.3-32-32-32H192V32c0-17.7-14.3-32-32-32H96zM192 96V384H32V96H192zM96 32h64V64H96V32zM112 192h32c8.8 0 16-7.2 16-16s-7.2-16-16-16H112c-8.8 0-16 7.2-16 16s7.2 16 16 16z"/>
  </g>
</svg>
